{"accessors" : [{"bufferView" : 0, "byteOffset" : 0, "componentType" : 5123, "count" : 36, "type" : "SCALAR", "max" : [35], "min" : [0]}, {"bufferView" : 1, "byteOffset" : 0, "componentType" : 5126, "count" : 36, "type" : "VEC3", "max" : [-0.012082305736839771, -0.0016872213454917073, 0.056053079664707184], "min" : [-44.012081146240234, -10.31213092803955, -0.0939469188451767], "name" : "POSITION"}, {"bufferView" : 1, "byteOffset" : 12, "componentType" : 5126, "count" : 36, "type" : "VEC3", "max" : [1.0000042915344238, 1.0000042915344238, 1.0000042915344238], "min" : [-1.0000042915344238, -1.0000042915344238, -1.0000042915344238], "name" : "NORMAL"}, {"bufferView" : 1, "byteOffset" : 24, "componentType" : 5126, "count" : 36, "type" : "VEC2", "max" : [1, 0.568466305732727], "min" : [1.0372978057493588E-17, 0.43153369426727295], "name" : "TEXCOORD_0"}, {"bufferView" : 0, "byteOffset" : 72, "componentType" : 5123, "count" : 36, "type" : "SCALAR", "max" : [35], "min" : [0]}, {"bufferView" : 2, "byteOffset" : 0, "componentType" : 5126, "count" : 36, "type" : "VEC3", "max" : [-0.012082305736839771, -0.0017022390384227037, 0.056053079664707184], "min" : [-44.012081146240234, -10.40391731262207, -0.0939469188451767], "name" : "POSITION"}, {"bufferView" : 2, "byteOffset" : 12, "componentType" : 5126, "count" : 36, "type" : "VEC3", "max" : [1.0000042915344238, 1.0000042915344238, 1.0000042915344238], "min" : [-1.0000042915344238, -1.0000042915344238, -1.0000042915344238], "name" : "NORMAL"}, {"bufferView" : 2, "byteOffset" : 24, "componentType" : 5126, "count" : 36, "type" : "VEC2", "max" : [1, 0.568466305732727], "min" : [1.0372978057493588E-17, 0.43153369426727295], "name" : "TEXCOORD_0"}, {"bufferView" : 0, "byteOffset" : 144, "componentType" : 5123, "count" : 5250, "type" : "SCALAR", "max" : [4665], "min" : [0]}, {"bufferView" : 3, "byteOffset" : 0, "componentType" : 5126, "count" : 4666, "type" : "VEC3", "max" : [15.149999618530273, 18, 13], "min" : [-50.849998474121094, -18, -0], "name" : "POSITION"}, {"bufferView" : 3, "byteOffset" : 12, "componentType" : 5126, "count" : 4666, "type" : "VEC3", "max" : [1.0000042915344238, 1.0000042915344238, 1.0000042915344238], "min" : [-1.0000042915344238, -1.0000042915344238, -1.0000042915344238], "name" : "NORMAL"}, {"bufferView" : 3, "byteOffset" : 24, "componentType" : 5126, "count" : 4666, "type" : "VEC2", "max" : [1, 1], "min" : [-1.2512837987976866E-10, -3.188696529043966E-11], "name" : "TEXCOORD_0"}, {"bufferView" : 0, "byteOffset" : 10644, "componentType" : 5123, "count" : 36, "type" : "SCALAR", "max" : [35], "min" : [0]}, {"bufferView" : 4, "byteOffset" : 0, "componentType" : 5126, "count" : 36, "type" : "VEC3", "max" : [-0.012082305736839771, 5.895573139190674, 0.056053079664707184], "min" : [-44.012081146240234, -5.895573139190674, -0.0939469188451767], "name" : "POSITION"}, {"bufferView" : 4, "byteOffset" : 12, "componentType" : 5126, "count" : 36, "type" : "VEC3", "max" : [1.0000042915344238, 1.0000042915344238, 1.0000042915344238], "min" : [-1.0000042915344238, -1.0000042915344238, -1.0000042915344238], "name" : "NORMAL"}, {"bufferView" : 4, "byteOffset" : 24, "componentType" : 5126, "count" : 36, "type" : "VEC2", "max" : [1, 0.568466305732727], "min" : [1.0372978057493588E-17, 0.43153369426727295], "name" : "TEXCOORD_0"}, {"bufferView" : 0, "byteOffset" : 10716, "componentType" : 5123, "count" : 348, "type" : "SCALAR", "max" : [318], "min" : [0]}, {"bufferView" : 5, "byteOffset" : 0, "componentType" : 5126, "count" : 319, "type" : "VEC3", "max" : [1, 16, 8.5], "min" : [0, -16, -5.5], "name" : "POSITION"}, {"bufferView" : 5, "byteOffset" : 12, "componentType" : 5126, "count" : 319, "type" : "VEC3", "max" : [1.0000042915344238, 1.0000042915344238, 1.0000042915344238], "min" : [-1.0000042915344238, -1.0000042915344238, -1.0000042915344238], "name" : "NORMAL"}, {"bufferView" : 5, "byteOffset" : 24, "componentType" : 5126, "count" : 319, "type" : "VEC2", "max" : [1, 1], "min" : [0, 0], "name" : "TEXCOORD_0"}, {"bufferView" : 0, "byteOffset" : 11412, "componentType" : 5123, "count" : 1638, "type" : "SCALAR", "max" : [1435], "min" : [0]}, {"bufferView" : 6, "byteOffset" : 0, "componentType" : 5126, "count" : 1436, "type" : "VEC3", "max" : [4.468659400939941, 3.0999999046325684, 4.921875476837158], "min" : [-3.75, -3.0999999046325684, -2.009395122528076], "name" : "POSITION"}, {"bufferView" : 6, "byteOffset" : 12, "componentType" : 5126, "count" : 1436, "type" : "VEC3", "max" : [1.0000042915344238, 1.0000042915344238, 1.0000042915344238], "min" : [-1.0000042915344238, -1.0000042915344238, -1.0000042915344238], "name" : "NORMAL"}, {"bufferView" : 6, "byteOffset" : 24, "componentType" : 5126, "count" : 1436, "type" : "VEC2", "max" : [0.9928574562072754, 0.9950248003005981], "min" : [0.0016732541844248772, 0.0016732541844248772], "name" : "TEXCOORD_0"}, {"bufferView" : 0, "byteOffset" : 14688, "componentType" : 5123, "count" : 1638, "type" : "SCALAR", "max" : [1435], "min" : [0]}, {"bufferView" : 7, "byteOffset" : 0, "componentType" : 5126, "count" : 1436, "type" : "VEC3", "max" : [4.468659400939941, 3.0999999046325684, 4.921875476837158], "min" : [-3.75, -3.0999999046325684, -2.009395122528076], "name" : "POSITION"}, {"bufferView" : 7, "byteOffset" : 12, "componentType" : 5126, "count" : 1436, "type" : "VEC3", "max" : [1.0000042915344238, 1.0000042915344238, 1.0000042915344238], "min" : [-1.0000042915344238, -1.0000042915344238, -1.0000042915344238], "name" : "NORMAL"}, {"bufferView" : 7, "byteOffset" : 24, "componentType" : 5126, "count" : 1436, "type" : "VEC2", "max" : [0.9928574562072754, 0.9950248003005981], "min" : [0.0016732541844248772, 0.0016732541844248772], "name" : "TEXCOORD_0"}, {"bufferView" : 0, "byteOffset" : 17964, "componentType" : 5123, "count" : 1638, "type" : "SCALAR", "max" : [1435], "min" : [0]}, {"bufferView" : 8, "byteOffset" : 0, "componentType" : 5126, "count" : 1436, "type" : "VEC3", "max" : [4.468659400939941, 3.0999999046325684, 4.921875476837158], "min" : [-3.75, -3.0999999046325684, -2.009395122528076], "name" : "POSITION"}, {"bufferView" : 8, "byteOffset" : 12, "componentType" : 5126, "count" : 1436, "type" : "VEC3", "max" : [1.0000042915344238, 1.0000042915344238, 1.0000042915344238], "min" : [-1.0000042915344238, -1.0000042915344238, -1.0000042915344238], "name" : "NORMAL"}, {"bufferView" : 8, "byteOffset" : 24, "componentType" : 5126, "count" : 1436, "type" : "VEC2", "max" : [0.9928574562072754, 0.9950248003005981], "min" : [0.0016732541844248772, 0.0016732541844248772], "name" : "TEXCOORD_0"}, {"bufferView" : 0, "byteOffset" : 21240, "componentType" : 5123, "count" : 756, "type" : "SCALAR", "max" : [672], "min" : [0]}, {"bufferView" : 9, "byteOffset" : 0, "componentType" : 5126, "count" : 673, "type" : "VEC3", "max" : [1.388489842414856, 1.3916709423065186, 0.800000011920929], "min" : [-1.388489842414856, -1.3916709423065186, -1.7000000476837158], "name" : "POSITION"}, {"bufferView" : 9, "byteOffset" : 12, "componentType" : 5126, "count" : 673, "type" : "VEC3", "max" : [1.0000042915344238, 0.9995917677879333, 1.0000042915344238], "min" : [-1.0000042915344238, -0.9995917677879333, -1.0000042915344238], "name" : "NORMAL"}, {"bufferView" : 9, "byteOffset" : 24, "componentType" : 5126, "count" : 673, "type" : "VEC2", "max" : [1, 0.8687403202056885], "min" : [-1.0519493416108778E-16, 0.13125962018966675], "name" : "TEXCOORD_0"}, {"bufferView" : 0, "byteOffset" : 22752, "componentType" : 5123, "count" : 756, "type" : "SCALAR", "max" : [672], "min" : [0]}, {"bufferView" : 10, "byteOffset" : 0, "componentType" : 5126, "count" : 673, "type" : "VEC3", "max" : [1.388489842414856, 1.3916709423065186, 0.800000011920929], "min" : [-1.388489842414856, -1.3916709423065186, -1.7000000476837158], "name" : "POSITION"}, {"bufferView" : 10, "byteOffset" : 12, "componentType" : 5126, "count" : 673, "type" : "VEC3", "max" : [1.0000042915344238, 0.9995917677879333, 1.0000042915344238], "min" : [-1.0000042915344238, -0.9995917677879333, -1.0000042915344238], "name" : "NORMAL"}, {"bufferView" : 10, "byteOffset" : 24, "componentType" : 5126, "count" : 673, "type" : "VEC2", "max" : [1, 0.8687403202056885], "min" : [-1.0519493416108778E-16, 0.13125962018966675], "name" : "TEXCOORD_0"}, {"bufferView" : 0, "byteOffset" : 24264, "componentType" : 5123, "count" : 756, "type" : "SCALAR", "max" : [672], "min" : [0]}, {"bufferView" : 11, "byteOffset" : 0, "componentType" : 5126, "count" : 673, "type" : "VEC3", "max" : [1.388489842414856, 1.3916709423065186, 0.800000011920929], "min" : [-1.388489842414856, -1.3916709423065186, -1.7000000476837158], "name" : "POSITION"}, {"bufferView" : 11, "byteOffset" : 12, "componentType" : 5126, "count" : 673, "type" : "VEC3", "max" : [1.0000042915344238, 0.9995917677879333, 1.0000042915344238], "min" : [-1.0000042915344238, -0.9995917677879333, -1.0000042915344238], "name" : "NORMAL"}, {"bufferView" : 11, "byteOffset" : 24, "componentType" : 5126, "count" : 673, "type" : "VEC2", "max" : [1, 0.8687403202056885], "min" : [-1.0519493416108778E-16, 0.13125962018966675], "name" : "TEXCOORD_0"}, {"bufferView" : 0, "byteOffset" : 25776, "componentType" : 5123, "count" : 822, "type" : "SCALAR", "max" : [730], "min" : [0]}, {"bufferView" : 12, "byteOffset" : 0, "componentType" : 5126, "count" : 731, "type" : "VEC3", "max" : [1.9947106838226318, 1.9725013971328735, 2.4926514625549316], "min" : [-1.9947106838226318, -1.9725013971328735, -2.161287784576416], "name" : "POSITION"}, {"bufferView" : 12, "byteOffset" : 12, "componentType" : 5126, "count" : 731, "type" : "VEC3", "max" : [0.9995909333229065, 0.9993345737457275, 1.0000042915344238], "min" : [-0.9993627667427063, -0.9993345737457275, -1.0000042915344238], "name" : "NORMAL"}, {"bufferView" : 12, "byteOffset" : 24, "componentType" : 5126, "count" : 731, "type" : "VEC2", "max" : [0.9950248599052429, 0.9941273927688599], "min" : [0.0016701767453923821, 0.0016701766289770603], "name" : "TEXCOORD_0"}, {"bufferView" : 0, "byteOffset" : 27420, "componentType" : 5123, "count" : 540, "type" : "SCALAR", "max" : [493], "min" : [0]}, {"bufferView" : 13, "byteOffset" : 0, "componentType" : 5126, "count" : 494, "type" : "VEC3", "max" : [0.49588924646377563, 0.4913906157016754, 1.1903076171875], "min" : [-0.49588924646377563, -0.4913906157016754, -0.4096923768520355], "name" : "POSITION"}, {"bufferView" : 13, "byteOffset" : 12, "componentType" : 5126, "count" : 494, "type" : "VEC3", "max" : [1.0000042915344238, 0.9827942252159119, 1.0000042915344238], "min" : [-1.0000042915344238, -0.9995917677879333, -1.0000042915344238], "name" : "NORMAL"}, {"bufferView" : 13, "byteOffset" : 24, "componentType" : 5126, "count" : 494, "type" : "VEC2", "max" : [1, 1], "min" : [-1.0040171818936905E-12, -8.375522497772181E-13], "name" : "TEXCOORD_0"}, {"bufferView" : 0, "byteOffset" : 28500, "componentType" : 5123, "count" : 540, "type" : "SCALAR", "max" : [493], "min" : [0]}, {"bufferView" : 14, "byteOffset" : 0, "componentType" : 5126, "count" : 494, "type" : "VEC3", "max" : [0.49588924646377563, 0.4913906157016754, 1.1903076171875], "min" : [-0.49588924646377563, -0.4913906157016754, -0.4096923768520355], "name" : "POSITION"}, {"bufferView" : 14, "byteOffset" : 12, "componentType" : 5126, "count" : 494, "type" : "VEC3", "max" : [1.0000042915344238, 0.9827942252159119, 1.0000042915344238], "min" : [-1.0000042915344238, -0.9995917677879333, -1.0000042915344238], "name" : "NORMAL"}, {"bufferView" : 14, "byteOffset" : 24, "componentType" : 5126, "count" : 494, "type" : "VEC2", "max" : [1, 1], "min" : [-1.0040171818936905E-12, -8.375522497772181E-13], "name" : "TEXCOORD_0"}, {"bufferView" : 0, "byteOffset" : 29580, "componentType" : 5123, "count" : 1104, "type" : "SCALAR", "max" : [983], "min" : [0]}, {"bufferView" : 15, "byteOffset" : 0, "componentType" : 5126, "count" : 984, "type" : "VEC3", "max" : [2.799999952316284, 1.399999976158142, 1.6165807247161865], "min" : [0, -1.399999976158142, -1.6165807247161865], "name" : "POSITION"}, {"bufferView" : 15, "byteOffset" : 12, "componentType" : 5126, "count" : 984, "type" : "VEC3", "max" : [1.0000042915344238, 1.0000042915344238, 1.0000042915344238], "min" : [-1.0000042915344238, -1.0000042915344238, -1.0000042915344238], "name" : "NORMAL"}, {"bufferView" : 15, "byteOffset" : 24, "componentType" : 5126, "count" : 984, "type" : "VEC2", "max" : [1, 1], "min" : [-5.465646381666578E-13, -4.094702008017315E-12], "name" : "TEXCOORD_0"}], "asset" : {"generator" : "Aspose.3D 22.1", "version" : "2.0"}, "buffers" : [{"uri" : "data:application/octet-stream;base64,", "byteLength" : 540460}], "bufferViews" : [{"buffer" : 0, "byteOffset" : 0, "byteLength" : 31788, "target" : 34963}, {"buffer" : 0, "byteOffset" : 31792, "byteLength" : 1152, "byteStride" : 32, "target" : 34962}, {"buffer" : 0, "byteOffset" : 32948, "byteLength" : 1152, "byteStride" : 32, "target" : 34962}, {"buffer" : 0, "byteOffset" : 34104, "byteLength" : 168000, "byteStride" : 32, "target" : 34962}, {"buffer" : 0, "byteOffset" : 202108, "byteLength" : 1152, "byteStride" : 32, "target" : 34962}, {"buffer" : 0, "byteOffset" : 203264, "byteLength" : 11136, "byteStride" : 32, "target" : 34962}, {"buffer" : 0, "byteOffset" : 214404, "byteLength" : 52416, "byteStride" : 32, "target" : 34962}, {"buffer" : 0, "byteOffset" : 266824, "byteLength" : 52416, "byteStride" : 32, "target" : 34962}, {"buffer" : 0, "byteOffset" : 319244, "byteLength" : 52416, "byteStride" : 32, "target" : 34962}, {"buffer" : 0, "byteOffset" : 371664, "byteLength" : 24192, "byteStride" : 32, "target" : 34962}, {"buffer" : 0, "byteOffset" : 395860, "byteLength" : 24192, "byteStride" : 32, "target" : 34962}, {"buffer" : 0, "byteOffset" : 420056, "byteLength" : 24192, "byteStride" : 32, "target" : 34962}, {"buffer" : 0, "byteOffset" : 444252, "byteLength" : 26304, "byteStride" : 32, "target" : 34962}, {"buffer" : 0, "byteOffset" : 470560, "byteLength" : 17280, "byteStride" : 32, "target" : 34962}, {"buffer" : 0, "byteOffset" : 487844, "byteLength" : 17280, "byteStride" : 32, "target" : 34962}, {"buffer" : 0, "byteOffset" : 505128, "byteLength" : 35328, "byteStride" : 32, "target" : 34962}], "images" : [{"uri" : "data:image/jpeg;base64,"}, {"uri" : "data:image/jpeg;base64,"}, {"uri" : "data:image/jpeg;base64,"}, {"uri" : "data:image/jpeg;base64,"}], "materials" : [{"name" : "Mat", "pbrMetallicRoughness" : {"baseColorFactor" : [0.8, 0.8, 0.8, 1], "baseColorTexture" : {"index" : 0, "texCoord" : 0}, "metallicFactor" : 0, "roughnessFactor" : 0.5}, "emissiveFactor" : [0, 0, 0], "alphaMode" : "OPAQUE", "doubleSided" : false}, {"name" : "Mat", "pbrMetallicRoughness" : {"baseColorFactor" : [0.8, 0.8, 0.8, 1], "baseColorTexture" : {"index" : 0, "texCoord" : 0}, "metallicFactor" : 0, "roughnessFactor" : 0.5}, "emissiveFactor" : [0, 0, 0], "alphaMode" : "OPAQUE", "doubleSided" : false}, {"name" : "Mat.3", "pbrMetallicRoughness" : {"baseColorFactor" : [0.27450980392156865, 0.27450980392156865, 0.27450980392156865, 1], "metallicFactor" : 0, "roughnessFactor" : 0.5}, "emissiveFactor" : [0, 0, 0], "alphaMode" : "OPAQUE", "doubleSided" : false}, {"name" : "Mat", "pbrMetallicRoughness" : {"baseColorFactor" : [0.8, 0.8, 0.8, 1], "baseColorTexture" : {"index" : 0, "texCoord" : 0}, "metallicFactor" : 0, "roughnessFactor" : 0.5}, "emissiveFactor" : [0, 0, 0], "alphaMode" : "OPAQUE", "doubleSided" : false}, {"name" : "Mat.3", "pbrMetallicRoughness" : {"baseColorFactor" : [0.27450980392156865, 0.27450980392156865, 0.27450980392156865, 1], "metallicFactor" : 0, "roughnessFactor" : 0.5}, "emissiveFactor" : [0, 0, 0], "alphaMode" : "OPAQUE", "doubleSided" : false}, {"name" : "output_connector", "pbrMetallicRoughness" : {"baseColorFactor" : [1, 1, 1, 1], "baseColorTexture" : {"index" : 1, "texCoord" : 0}, "metallicFactor" : 0, "roughnessFactor" : 0.46}, "emissiveFactor" : [0, 0, 0], "alphaMode" : "OPAQUE", "doubleSided" : false}, {"name" : "output_connector", "pbrMetallicRoughness" : {"baseColorFactor" : [1, 1, 1, 1], "baseColorTexture" : {"index" : 1, "texCoord" : 0}, "metallicFactor" : 0, "roughnessFactor" : 0.46}, "emissiveFactor" : [0, 0, 0], "alphaMode" : "OPAQUE", "doubleSided" : false}, {"name" : "output_connector", "pbrMetallicRoughness" : {"baseColorFactor" : [1, 1, 1, 1], "baseColorTexture" : {"index" : 1, "texCoord" : 0}, "metallicFactor" : 0, "roughnessFactor" : 0.46}, "emissiveFactor" : [0, 0, 0], "alphaMode" : "OPAQUE", "doubleSided" : false}, {"name" : "green_switch", "pbrMetallicRoughness" : {"baseColorFactor" : [0.23529411764705882, 0.49411764705882355, 0.33333333333333337, 1], "baseColorTexture" : {"index" : 2, "texCoord" : 0}, "metallicFactor" : 0, "roughnessFactor" : 0.5}, "emissiveFactor" : [0, 0, 0], "alphaMode" : "OPAQUE", "doubleSided" : false}, {"name" : "green_switch", "pbrMetallicRoughness" : {"baseColorFactor" : [0.23529411764705882, 0.49411764705882355, 0.33333333333333337, 1], "baseColorTexture" : {"index" : 2, "texCoord" : 0}, "metallicFactor" : 0, "roughnessFactor" : 0.5}, "emissiveFactor" : [0, 0, 0], "alphaMode" : "OPAQUE", "doubleSided" : false}, {"name" : "green_switch", "pbrMetallicRoughness" : {"baseColorFactor" : [0.23529411764705882, 0.49411764705882355, 0.33333333333333337, 1], "baseColorTexture" : {"index" : 2, "texCoord" : 0}, "metallicFactor" : 0, "roughnessFactor" : 0.5}, "emissiveFactor" : [0, 0, 0], "alphaMode" : "OPAQUE", "doubleSided" : false}, {"name" : "Mat.2", "pbrMetallicRoughness" : {"baseColorFactor" : [0.8, 0.8, 0.8, 1], "baseColorTexture" : {"index" : 3, "texCoord" : 0}, "metallicFactor" : 0, "roughnessFactor" : 0.5}, "emissiveFactor" : [0, 0, 0], "alphaMode" : "OPAQUE", "doubleSided" : false}, {"name" : "Mat.4", "pbrMetallicRoughness" : {"baseColorFactor" : [0.17, 0.17, 0.17, 1], "metallicFactor" : 0, "roughnessFactor" : 0.5}, "emissiveFactor" : [0, 0, 0], "alphaMode" : "OPAQUE", "doubleSided" : false}, {"name" : "Mat.4", "pbrMetallicRoughness" : {"baseColorFactor" : [0.17, 0.17, 0.17, 1], "metallicFactor" : 0, "roughnessFactor" : 0.5}, "emissiveFactor" : [0, 0, 0], "alphaMode" : "OPAQUE", "doubleSided" : false}, {"name" : "Mat.1", "pbrMetallicRoughness" : {"baseColorFactor" : [0.87, 0.87, 0.87, 1], "metallicFactor" : 0, "roughnessFactor" : 0.5}, "emissiveFactor" : [0, 0, 0], "alphaMode" : "OPAQUE", "doubleSided" : false}], "meshes" : [{"primitives" : [{"attributes" : {"POSITION" : 1, "NORMAL" : 2, "TEXCOORD_0" : 3}, "indices" : 0, "material" : 0, "mode" : 4}]}, {"primitives" : [{"attributes" : {"POSITION" : 5, "NORMAL" : 6, "TEXCOORD_0" : 7}, "indices" : 4, "material" : 1, "mode" : 4}]}, {"primitives" : [{"attributes" : {"POSITION" : 9, "NORMAL" : 10, "TEXCOORD_0" : 11}, "indices" : 8, "material" : 2, "mode" : 4}]}, {"primitives" : [{"attributes" : {"POSITION" : 13, "NORMAL" : 14, "TEXCOORD_0" : 15}, "indices" : 12, "material" : 3, "mode" : 4}]}, {"primitives" : [{"attributes" : {"POSITION" : 17, "NORMAL" : 18, "TEXCOORD_0" : 19}, "indices" : 16, "material" : 4, "mode" : 4}]}, {"primitives" : [{"attributes" : {"POSITION" : 21, "NORMAL" : 22, "TEXCOORD_0" : 23}, "indices" : 20, "material" : 5, "mode" : 4}]}, {"primitives" : [{"attributes" : {"POSITION" : 25, "NORMAL" : 26, "TEXCOORD_0" : 27}, "indices" : 24, "material" : 6, "mode" : 4}]}, {"primitives" : [{"attributes" : {"POSITION" : 29, "NORMAL" : 30, "TEXCOORD_0" : 31}, "indices" : 28, "material" : 7, "mode" : 4}]}, {"primitives" : [{"attributes" : {"POSITION" : 33, "NORMAL" : 34, "TEXCOORD_0" : 35}, "indices" : 32, "material" : 8, "mode" : 4}]}, {"primitives" : [{"attributes" : {"POSITION" : 37, "NORMAL" : 38, "TEXCOORD_0" : 39}, "indices" : 36, "material" : 9, "mode" : 4}]}, {"primitives" : [{"attributes" : {"POSITION" : 41, "NORMAL" : 42, "TEXCOORD_0" : 43}, "indices" : 40, "material" : 10, "mode" : 4}]}, {"primitives" : [{"attributes" : {"POSITION" : 45, "NORMAL" : 46, "TEXCOORD_0" : 47}, "indices" : 44, "material" : 11, "mode" : 4}]}, {"primitives" : [{"attributes" : {"POSITION" : 49, "NORMAL" : 50, "TEXCOORD_0" : 51}, "indices" : 48, "material" : 12, "mode" : 4}]}, {"primitives" : [{"attributes" : {"POSITION" : 53, "NORMAL" : 54, "TEXCOORD_0" : 55}, "indices" : 52, "material" : 13, "mode" : 4}]}, {"primitives" : [{"attributes" : {"POSITION" : 57, "NORMAL" : 58, "TEXCOORD_0" : 59}, "indices" : 56, "material" : 14, "mode" : 4}]}], "nodes" : [{"matrix" : [4.5852123875533835E-08, -0.9999999541478761, 0, 0, 0.9396925754814074, 4.5852123875533835E-08, -0.3420201337361206, 0, 0.3420201337361206, 0, 0.9396926213335313, 0, 16.691831588745117, 3.851776361465454, 9.053056716918945, 1], "mesh" : 0, "name" : "PartBody"}, {"matrix" : [-1.8927540867963444E-08, -1.0000000189275409, 0, 0, 0.9479421385530844, -1.8927540867963444E-08, 0.31844267900281054, 0, -0.31844267900281054, 0, 0.9479421196255435, 0, -6.684749603271484, 3.851776361465454, 12.675138473510742, 1], "mesh" : 1, "name" : "PartBody.2"}, {"mesh" : 2, "name" : "PartBody.1"}, {"matrix" : [1, 0, 0, 0, 0, 1, 0, 0, 0, 0, 1, 0, -4.469343662261963, 0.1073928102850914, 12.61342716217041, 1], "mesh" : 3, "name" : "PartBody.2"}, {"children" : [2, 3], "name" : "Part1.1"}, {"matrix" : [3.422854177870249E-08, 0, 0.9999999657714582, 0, 0, 1, 0, 0, -0.9999999657714582, 0, 3.422854177870249E-08, 0, 9.149999618530273, 0, 9, 1], "mesh" : 4, "name" : "mcb plate"}, {"mesh" : 5, "name" : "PartBody(2)"}, {"children" : [6], "matrix" : [1, 0, 0, 0, 0, 1, 0, 0, 0, 0, 1, 0, -4.300000190734863, 0, 13, 1], "name" : "output connector"}, {"mesh" : 6, "name" : "PartBody(2)"}, {"children" : [8], "matrix" : [1, 0, 0, 0, 0, 0.9468990470431424, 0.3215310135531908, 0, 0, -0.3215310135531908, 0.9468990470431424, 0, -4.300000190734863, -12.223916053771973, 10.961338996887207, 1], "name" : "output connector_2"}, {"mesh" : 7, "name" : "PartBody(2)"}, {"children" : [10], "matrix" : [1, 0, 0, 0, 0, 0.9468991344526341, -0.32153076834126537, 0, 0, 0.32153076834126537, 0.9468991344526341, 0, -4.300000190734863, 11.996195793151855, 11.03866195678711, 1], "name" : "output connector_3"}, {"mesh" : 8, "name" : "PartBody(3)"}, {"children" : [12], "matrix" : [1, 0, 0, 0, 0, 1, 0, 0, 0, 0, 1, 0, -15.5, 0, 13, 1], "name" : "Part4"}, {"mesh" : 9, "name" : "PartBody(3)"}, {"children" : [14], "matrix" : [1, 0, 0, 0, 0, 0.9468990470431424, 0.3215310135531908, 0, 0, -0.3215310135531908, 0.9468990470431424, 0, -15.5, -12.110098838806152, 10.999987602233887, 1], "name" : "Part4_2"}, {"mesh" : 10, "name" : "PartBody(3)"}, {"children" : [16], "matrix" : [1, 0, 0, 0, 0, 0.9468991344526341, -0.32153076834126537, 0, 0, 0.32153076834126537, 0.9468991344526341, 0, -15.5, 12.110097885131836, 10.999985694885254, 1], "name" : "Part4_3"}, {"matrix" : [1, 0, 0, 0, 0, 3.422854177870249E-08, 0.9999999657714582, 0, 0, -0.9999999657714582, 3.422854177870249E-08, 0, -15, -18.661287307739258, 3, 1], "mesh" : 11, "name" : "Part5"}, {"mesh" : 12, "name" : "PartBody(5)"}, {"children" : [19], "matrix" : [1, 0, 0, 0, 0, 1, 0, 0, 0, 0, 1, 0, 7.650000095367432, 15, 9.409692764282227, 1], "name" : "Part6"}, {"mesh" : 13, "name" : "PartBody(5)"}, {"children" : [21], "matrix" : [1, 0, 0, 0, 0, 1, 0, 0, 0, 0, 1, 0, 7.650000095367432, -15, 9.409692764282227, 1], "name" : "Part6_2"}, {"matrix" : [1, 0, 0, 0, 0, 1, 0, 0, 0, 0, 1, 0, 15.149999618530273, 15, 4, 1], "mesh" : 14, "name" : "Part7"}, {"children" : [4, 5, 7, 9, 11, 13, 15, 17, 18, 20, 22, 23], "matrix" : [3.422854177870249E-08, -0.9999999657714582, 0, 0, 0.9999999657714582, 3.422854177870249E-08, 0, 0, 0, 0, 1, 0, 0, 0, 0, 1], "name" : "ac001 assembly (1).stp"}], "samplers" : [{"magFilter" : 9729, "minFilter" : 9729, "wrapS" : 10497, "wrapT" : 10497}, {"magFilter" : 9729, "minFilter" : 9729, "wrapS" : 10497, "wrapT" : 10497}, {"magFilter" : 9729, "minFilter" : 9729, "wrapS" : 10497, "wrapT" : 10497}, {"magFilter" : 9729, "minFilter" : 9729, "wrapS" : 10497, "wrapT" : 10497}], "scene" : 0, "scenes" : [{"nodes" : [0, 1, 24]}], "textures" : [{"sampler" : 0, "source" : 0}, {"sampler" : 1, "source" : 1}, {"sampler" : 2, "source" : 2}, {"sampler" : 3, "source" : 3}]}